<svg id="svg" version="1.1" width="400" height="535.7142857142857" viewBox="0 0 400 535.7142857142857" xmlns="http://www.w3.org/2000/svg" xmlns:xlink="http://www.w3.org/1999/xlink" ><g id="svgg"><path id="path0" d="M26.400 402.357 C 26.400 433.139,26.466 436.800,27.017 436.800 C 27.357 436.800,28.084 437.216,28.633 437.725 C 29.181 438.234,30.299 438.889,31.115 439.182 C 31.932 439.474,32.692 439.853,32.804 440.024 C 32.916 440.196,33.276 440.395,33.604 440.468 C 33.932 440.541,34.570 440.960,35.021 441.400 C 35.473 441.840,36.103 442.259,36.421 442.330 C 36.740 442.402,37.060 442.627,37.133 442.830 C 37.207 443.034,37.612 443.200,38.033 443.200 C 38.455 443.200,38.800 443.380,38.800 443.600 C 38.800 443.820,39.070 444.000,39.400 444.000 C 39.730 444.000,40.000 444.180,40.000 444.400 C 40.000 444.620,40.341 444.800,40.757 444.800 C 41.174 444.800,41.622 445.081,41.754 445.425 C 41.886 445.769,42.161 445.948,42.365 445.822 C 42.569 445.696,43.007 445.864,43.339 446.196 C 43.671 446.528,44.226 446.800,44.571 446.800 C 44.917 446.800,45.200 446.968,45.200 447.174 C 45.200 447.380,45.830 447.776,46.600 448.054 C 47.370 448.333,48.000 448.705,48.000 448.882 C 48.000 449.058,48.720 449.514,49.600 449.896 C 50.480 450.277,51.200 450.726,51.200 450.894 C 51.200 451.062,51.470 451.200,51.800 451.200 C 52.130 451.200,52.400 451.380,52.400 451.600 C 52.400 451.820,52.760 452.000,53.200 452.000 C 53.640 452.000,54.000 452.153,54.000 452.340 C 54.000 452.527,54.810 453.013,55.800 453.422 C 56.790 453.830,57.600 454.295,57.600 454.456 C 57.600 454.617,58.230 454.976,59.000 455.254 C 59.770 455.533,60.400 455.905,60.400 456.080 C 60.400 456.256,60.661 456.400,60.979 456.400 C 61.298 456.400,62.044 456.850,62.638 457.400 C 63.231 457.950,63.961 458.400,64.258 458.400 C 64.556 458.400,64.800 458.580,64.800 458.800 C 64.800 459.020,65.149 459.200,65.576 459.200 C 66.003 459.200,66.464 459.380,66.600 459.600 C 66.736 459.820,67.197 460.000,67.624 460.000 C 68.051 460.000,68.400 460.236,68.400 460.525 C 68.400 460.814,69.030 461.298,69.800 461.600 C 70.570 461.902,71.200 462.296,71.200 462.475 C 71.200 462.654,71.560 462.800,72.000 462.800 C 72.440 462.800,72.800 462.980,72.800 463.200 C 72.800 463.420,73.210 463.600,73.712 463.600 C 74.213 463.600,74.888 463.969,75.212 464.419 C 75.778 465.208,77.744 466.400,78.478 466.400 C 78.674 466.400,79.220 466.760,79.692 467.200 C 80.164 467.640,80.883 468.000,81.288 468.000 C 81.693 468.000,82.129 468.270,82.255 468.600 C 82.382 468.930,82.736 469.200,83.043 469.200 C 83.349 469.200,83.600 469.380,83.600 469.600 C 83.600 469.820,83.960 470.000,84.400 470.000 C 84.840 470.000,85.200 470.180,85.200 470.400 C 85.200 470.620,85.470 470.800,85.800 470.800 C 86.130 470.800,86.400 470.991,86.400 471.224 C 86.400 471.457,86.573 471.540,86.785 471.409 C 86.997 471.278,87.537 471.537,87.985 471.985 C 88.433 472.433,88.800 472.704,88.800 472.588 C 88.800 472.471,89.793 473.011,91.008 473.788 C 92.222 474.564,93.405 475.200,93.636 475.200 C 93.868 475.200,94.308 475.425,94.615 475.700 C 96.058 476.995,96.474 477.255,97.183 477.309 C 97.602 477.340,97.856 477.509,97.749 477.683 C 97.641 477.857,97.833 478.000,98.176 478.000 C 98.519 478.000,98.800 478.180,98.800 478.400 C 98.800 478.620,99.261 478.800,99.824 478.800 C 100.404 478.800,100.740 478.973,100.600 479.200 C 100.464 479.420,100.543 479.623,100.776 479.650 C 101.009 479.678,101.387 479.723,101.615 479.750 C 101.843 479.777,102.158 479.980,102.315 480.200 C 102.472 480.420,103.542 481.050,104.694 481.600 C 105.845 482.150,106.790 482.735,106.794 482.900 C 106.797 483.065,107.141 483.200,107.557 483.200 C 107.974 483.200,108.401 483.425,108.507 483.700 C 108.731 484.283,111.815 486.000,112.638 486.000 C 112.947 486.000,113.200 486.180,113.200 486.400 C 113.200 486.620,113.517 486.800,113.905 486.800 C 114.293 486.800,114.948 487.250,115.361 487.800 C 115.774 488.350,116.447 488.800,116.856 488.800 C 117.265 488.800,117.600 488.980,117.600 489.200 C 117.600 489.420,117.915 489.600,118.300 489.600 C 118.685 489.601,119.518 490.047,120.152 490.592 C 120.786 491.137,121.442 491.498,121.610 491.394 C 121.779 491.290,122.019 491.474,122.146 491.802 C 122.272 492.131,122.741 492.400,123.187 492.400 C 123.634 492.400,124.000 492.580,124.000 492.800 C 124.000 493.020,124.360 493.200,124.800 493.200 C 125.240 493.200,125.600 493.368,125.600 493.574 C 125.600 493.780,126.230 494.176,127.000 494.454 C 127.770 494.733,128.400 495.105,128.400 495.282 C 128.400 495.458,129.120 495.914,130.000 496.296 C 130.880 496.677,131.600 497.126,131.600 497.294 C 131.600 497.462,131.870 497.600,132.200 497.600 C 132.530 497.600,132.800 497.780,132.800 498.000 C 132.800 498.220,133.145 498.400,133.567 498.400 C 133.988 498.400,134.397 498.590,134.474 498.822 C 134.551 499.054,134.922 499.289,135.299 499.344 C 135.675 499.399,136.392 499.794,136.891 500.222 C 138.103 501.259,139.461 502.000,140.152 502.000 C 140.461 502.000,140.828 502.296,140.967 502.657 C 141.105 503.019,141.327 503.207,141.459 503.075 C 141.591 502.943,142.279 503.277,142.987 503.817 C 143.696 504.358,144.484 504.800,144.738 504.800 C 144.992 504.800,145.200 504.980,145.200 505.200 C 145.200 505.420,145.560 505.600,146.000 505.600 C 146.440 505.600,146.800 505.780,146.800 506.000 C 146.800 506.220,147.250 506.400,147.800 506.400 C 148.366 506.400,148.800 506.631,148.800 506.932 C 148.800 507.463,149.428 507.854,151.900 508.864 C 152.615 509.156,153.200 509.531,153.200 509.698 C 153.200 509.864,153.448 510.000,153.751 510.000 C 154.054 510.000,154.524 510.268,154.796 510.596 C 155.068 510.923,155.431 511.104,155.603 510.998 C 155.775 510.892,156.019 511.074,156.146 511.402 C 156.272 511.731,156.651 512.000,156.987 512.000 C 157.324 512.000,157.600 512.142,157.600 512.315 C 157.600 512.488,157.955 512.657,158.389 512.689 C 158.823 512.722,159.588 513.136,160.089 513.610 C 160.590 514.084,161.675 514.768,162.500 515.130 C 163.325 515.493,164.000 515.926,164.000 516.094 C 164.000 516.262,164.360 516.400,164.800 516.400 C 165.240 516.400,165.600 516.580,165.600 516.800 C 165.600 517.020,165.870 517.200,166.200 517.200 C 166.530 517.200,166.800 517.380,166.800 517.600 C 166.800 517.820,167.160 518.000,167.600 518.000 C 168.040 518.000,168.400 518.139,168.400 518.309 C 168.400 518.479,169.075 518.966,169.900 519.392 C 170.725 519.818,171.878 520.489,172.462 520.883 C 173.046 521.277,173.734 521.600,173.990 521.600 C 174.247 521.600,174.708 521.825,175.015 522.100 C 176.314 523.265,176.728 523.522,178.113 524.023 C 178.916 524.313,180.056 524.967,180.648 525.475 C 181.240 525.984,181.966 526.400,182.262 526.400 C 182.558 526.400,182.800 526.549,182.800 526.732 C 182.800 526.914,183.745 527.499,184.900 528.032 C 186.055 528.564,187.060 529.135,187.133 529.300 C 187.207 529.465,187.567 529.603,187.933 529.607 C 188.300 529.611,189.024 530.061,189.542 530.607 C 190.060 531.153,190.735 531.600,191.042 531.600 C 191.349 531.600,191.600 531.791,191.600 532.024 C 191.600 532.257,191.753 532.352,191.941 532.236 C 192.129 532.120,192.624 532.284,193.041 532.600 C 193.458 532.916,194.096 533.180,194.457 533.187 C 194.819 533.194,195.221 533.478,195.352 533.818 C 196.216 536.070,204.800 535.835,204.800 533.560 C 204.800 533.362,205.053 533.200,205.362 533.200 C 206.119 533.200,209.200 531.535,209.200 531.126 C 209.200 530.947,209.566 530.800,210.013 530.800 C 210.459 530.800,210.929 530.530,211.055 530.200 C 211.182 529.870,211.626 529.600,212.043 529.600 C 212.459 529.600,212.800 529.420,212.800 529.200 C 212.800 528.980,213.160 528.800,213.600 528.800 C 214.040 528.800,214.400 528.620,214.400 528.400 C 214.400 528.180,214.670 528.000,215.000 528.000 C 215.330 528.000,215.600 527.820,215.600 527.600 C 215.600 527.380,215.941 527.200,216.357 527.200 C 216.774 527.200,217.228 526.904,217.367 526.543 C 217.505 526.181,217.727 525.993,217.859 526.125 C 217.991 526.257,218.679 525.923,219.387 525.383 C 220.096 524.842,220.974 524.400,221.338 524.400 C 221.702 524.400,222.000 524.220,222.000 524.000 C 222.000 523.780,222.270 523.600,222.600 523.600 C 222.930 523.600,223.200 523.420,223.200 523.200 C 223.200 522.980,223.551 522.800,223.980 522.800 C 224.409 522.800,224.904 522.575,225.080 522.300 C 225.439 521.740,226.867 520.897,229.646 519.608 C 230.221 519.341,231.158 518.690,231.728 518.162 C 232.298 517.633,233.133 517.200,233.583 517.200 C 234.032 517.200,234.400 517.052,234.400 516.871 C 234.400 516.691,235.314 516.130,236.430 515.625 C 237.547 515.120,238.556 514.458,238.673 514.154 C 238.790 513.849,239.100 513.600,239.363 513.600 C 240.065 513.600,241.993 512.648,241.997 512.300 C 241.999 512.135,242.270 512.000,242.600 512.000 C 242.930 512.000,243.200 511.809,243.200 511.576 C 243.200 511.343,243.380 511.264,243.600 511.400 C 243.820 511.536,244.000 511.446,244.000 511.200 C 244.000 510.954,244.181 510.865,244.403 511.002 C 244.624 511.139,244.914 510.969,245.046 510.625 C 245.178 510.281,245.626 510.000,246.043 510.000 C 246.459 510.000,246.800 509.820,246.800 509.600 C 246.800 509.380,247.160 509.200,247.600 509.200 C 248.040 509.200,248.400 509.020,248.400 508.800 C 248.400 508.580,248.670 508.400,249.000 508.400 C 249.330 508.400,249.600 508.220,249.600 508.000 C 249.600 507.780,249.960 507.600,250.400 507.600 C 250.844 507.600,251.200 507.333,251.200 507.000 C 251.200 506.627,251.578 506.400,252.200 506.400 C 252.750 506.400,253.200 506.220,253.200 506.000 C 253.200 505.780,253.436 505.600,253.725 505.600 C 254.013 505.600,254.612 505.262,255.055 504.849 C 255.499 504.436,256.253 503.974,256.731 503.822 C 257.209 503.670,257.600 503.348,257.600 503.106 C 257.600 502.865,257.714 502.781,257.854 502.920 C 257.993 503.060,258.554 502.822,259.101 502.392 C 259.647 501.963,260.298 501.727,260.547 501.870 C 260.796 502.012,260.868 501.982,260.706 501.804 C 260.388 501.452,262.141 500.400,263.046 500.400 C 263.351 500.400,263.600 500.220,263.600 500.000 C 263.600 499.780,263.862 499.600,264.182 499.600 C 264.502 499.600,265.214 499.150,265.764 498.600 C 266.314 498.050,267.142 497.600,267.605 497.600 C 268.068 497.600,268.336 497.420,268.200 497.200 C 268.064 496.980,268.245 496.800,268.603 496.800 C 268.961 496.800,269.843 496.350,270.564 495.800 C 271.286 495.250,272.084 494.800,272.338 494.800 C 272.592 494.800,272.800 494.620,272.800 494.400 C 272.800 494.180,273.145 494.000,273.567 494.000 C 273.988 494.000,274.397 493.810,274.474 493.578 C 274.551 493.346,274.881 493.106,275.207 493.045 C 276.214 492.855,278.000 491.890,278.000 491.536 C 278.000 491.351,278.225 491.245,278.500 491.300 C 278.775 491.355,278.955 491.175,278.900 490.900 C 278.841 490.607,279.213 490.400,279.800 490.400 C 280.350 490.400,280.800 490.220,280.800 490.000 C 280.800 489.780,281.171 489.600,281.624 489.600 C 282.077 489.600,282.336 489.420,282.200 489.200 C 282.064 488.980,282.297 488.800,282.718 488.800 C 283.139 488.800,283.969 488.350,284.562 487.800 C 285.156 487.250,285.902 486.800,286.221 486.800 C 286.539 486.800,286.800 486.620,286.800 486.400 C 286.800 486.180,287.062 486.000,287.382 486.000 C 287.910 486.000,290.278 484.618,291.483 483.606 C 291.749 483.383,292.244 483.200,292.583 483.200 C 292.922 483.200,293.200 483.054,293.200 482.875 C 293.200 482.696,293.830 482.302,294.600 482.000 C 295.370 481.698,296.000 481.304,296.000 481.125 C 296.000 480.946,296.360 480.800,296.800 480.800 C 297.240 480.800,297.600 480.640,297.600 480.443 C 297.600 480.247,298.050 479.974,298.600 479.836 C 299.150 479.698,299.600 479.408,299.600 479.192 C 299.600 478.977,299.881 478.800,300.224 478.800 C 300.567 478.800,300.736 478.620,300.600 478.400 C 300.464 478.180,300.723 478.000,301.176 478.000 C 301.629 478.000,302.000 477.820,302.000 477.600 C 302.000 477.380,302.298 477.200,302.662 477.200 C 303.026 477.200,303.914 476.750,304.636 476.200 C 305.357 475.650,306.094 475.196,306.273 475.191 C 306.453 475.186,307.050 474.830,307.600 474.400 C 308.150 473.970,308.884 473.614,309.230 473.609 C 309.577 473.604,310.283 473.150,310.800 472.600 C 311.317 472.050,311.978 471.600,312.270 471.600 C 312.561 471.600,312.800 471.420,312.800 471.200 C 312.800 470.980,313.250 470.800,313.800 470.800 C 314.350 470.800,314.800 470.620,314.800 470.400 C 314.800 470.180,315.160 470.000,315.600 470.000 C 316.040 470.000,316.400 469.822,316.400 469.605 C 316.400 469.388,317.030 468.948,317.800 468.626 C 318.570 468.304,319.200 467.852,319.200 467.620 C 319.200 467.389,319.560 467.200,320.000 467.200 C 320.440 467.200,320.800 467.020,320.800 466.800 C 320.800 466.580,321.160 466.400,321.600 466.400 C 322.040 466.400,322.400 466.220,322.400 466.000 C 322.400 465.780,322.670 465.600,323.000 465.600 C 323.330 465.600,323.600 465.409,323.600 465.176 C 323.600 464.943,323.780 464.864,324.000 465.000 C 324.220 465.136,324.400 465.046,324.400 464.800 C 324.400 464.554,324.580 464.464,324.800 464.600 C 325.020 464.736,325.200 464.567,325.200 464.224 C 325.200 463.825,325.561 463.600,326.200 463.600 C 326.750 463.600,327.200 463.420,327.200 463.200 C 327.200 462.980,327.560 462.800,328.000 462.800 C 328.440 462.800,328.800 462.620,328.800 462.400 C 328.800 462.180,328.993 462.000,329.229 462.000 C 329.464 462.000,329.929 461.728,330.261 461.396 C 330.593 461.064,331.030 460.895,331.232 461.020 C 331.435 461.145,331.600 460.967,331.600 460.624 C 331.600 460.281,331.865 460.000,332.188 460.000 C 332.884 460.000,335.453 458.604,336.282 457.775 C 336.602 457.455,337.031 457.296,337.235 457.422 C 337.439 457.548,337.714 457.369,337.846 457.025 C 337.978 456.681,338.426 456.400,338.843 456.400 C 339.259 456.400,339.600 456.220,339.600 456.000 C 339.600 455.780,339.960 455.600,340.400 455.600 C 340.840 455.600,341.200 455.420,341.200 455.200 C 341.200 454.980,341.470 454.800,341.800 454.800 C 342.130 454.800,342.400 454.620,342.400 454.400 C 342.400 454.180,342.760 454.000,343.200 454.000 C 343.640 454.000,344.000 453.820,344.000 453.600 C 344.000 453.380,344.227 453.200,344.504 453.200 C 344.781 453.200,345.493 452.750,346.087 452.200 C 346.680 451.650,347.544 451.200,348.006 451.200 C 348.469 451.200,348.736 451.020,348.600 450.800 C 348.464 450.580,348.723 450.400,349.176 450.400 C 349.629 450.400,350.000 450.220,350.000 450.000 C 350.000 449.780,350.251 449.600,350.557 449.600 C 350.864 449.600,351.218 449.330,351.345 449.000 C 351.471 448.670,351.941 448.400,352.387 448.400 C 352.834 448.400,353.200 448.220,353.200 448.000 C 353.200 447.780,353.560 447.600,354.000 447.600 C 354.440 447.600,354.800 447.456,354.800 447.280 C 354.800 447.105,355.435 446.731,356.212 446.450 C 356.989 446.169,358.061 445.503,358.594 444.970 C 359.127 444.436,359.932 444.000,360.382 444.000 C 360.832 444.000,361.200 443.820,361.200 443.600 C 361.200 443.380,361.560 443.200,362.000 443.200 C 362.440 443.200,362.800 443.020,362.800 442.800 C 362.800 442.580,363.051 442.400,363.357 442.400 C 363.664 442.400,364.022 442.119,364.154 441.775 C 364.286 441.431,364.577 441.262,364.800 441.400 C 365.023 441.538,365.314 441.369,365.446 441.025 C 365.578 440.681,366.026 440.400,366.443 440.400 C 366.859 440.400,367.200 440.220,367.200 440.000 C 367.200 439.780,367.487 439.600,367.837 439.600 C 368.187 439.600,368.931 439.240,369.491 438.800 C 370.050 438.360,370.754 438.000,371.054 438.000 C 371.354 438.000,371.600 437.816,371.600 437.590 C 371.600 437.365,372.050 437.009,372.600 436.800 L 373.600 436.420 373.600 402.210 C 373.600 380.346,373.460 368.000,373.212 368.000 C 372.998 368.000,371.453 368.810,369.778 369.800 C 368.104 370.790,366.677 371.600,366.608 371.600 C 366.538 371.600,365.338 372.292,363.941 373.137 C 362.543 373.983,360.590 375.131,359.600 375.688 C 358.017 376.579,355.360 378.103,351.400 380.391 C 350.740 380.773,348.790 381.921,347.067 382.942 C 345.344 383.964,343.866 384.800,343.783 384.800 C 343.699 384.800,341.981 385.790,339.964 387.000 C 337.948 388.210,336.222 389.200,336.130 389.200 C 336.037 389.200,334.977 389.830,333.773 390.600 C 332.569 391.370,331.514 392.000,331.427 392.000 C 331.340 392.000,328.633 393.530,325.411 395.401 C 322.188 397.271,318.798 399.233,317.876 399.761 C 316.484 400.557,312.278 402.989,305.000 407.207 C 304.340 407.589,302.630 408.576,301.200 409.400 C 299.770 410.224,298.060 411.214,297.400 411.600 C 295.137 412.924,290.999 415.299,289.200 416.307 C 288.210 416.861,286.922 417.649,286.338 418.057 C 285.754 418.466,285.180 418.800,285.061 418.800 C 284.943 418.800,282.845 419.970,280.400 421.400 C 277.955 422.830,275.843 424.000,275.708 424.000 C 275.573 424.000,275.179 424.245,274.831 424.544 C 274.484 424.843,273.120 425.670,271.800 426.382 C 270.480 427.094,269.220 427.815,269.000 427.985 C 268.780 428.154,267.790 428.742,266.800 429.290 C 263.176 431.297,261.791 432.092,261.400 432.389 C 261.180 432.556,260.190 433.142,259.200 433.690 C 255.576 435.697,254.191 436.492,253.800 436.789 C 253.580 436.956,252.500 437.592,251.400 438.202 C 250.300 438.812,248.590 439.762,247.600 440.313 C 246.610 440.864,245.322 441.649,244.738 442.057 C 244.154 442.466,243.593 442.800,243.492 442.800 C 243.390 442.800,238.522 445.579,232.673 448.976 C 226.824 452.373,221.265 455.591,220.320 456.127 C 218.371 457.231,213.997 459.748,212.200 460.800 C 208.902 462.729,204.416 465.293,201.473 466.929 L 199.945 467.778 197.673 466.546 C 196.423 465.869,194.230 464.636,192.800 463.808 C 191.370 462.980,189.570 461.945,188.800 461.508 C 188.030 461.072,187.220 460.578,187.000 460.411 C 186.780 460.244,185.790 459.655,184.800 459.103 C 183.035 458.118,178.975 455.790,176.600 454.400 C 174.865 453.385,170.466 450.852,168.566 449.775 C 167.667 449.265,162.565 446.317,157.227 443.224 C 151.890 440.131,147.446 437.600,147.353 437.600 C 147.260 437.600,146.456 437.140,145.566 436.579 C 144.676 436.017,143.375 435.229,142.674 434.827 C 140.329 433.484,136.212 431.109,135.000 430.400 C 133.161 429.324,128.806 426.818,126.821 425.694 C 125.843 425.140,124.133 424.143,123.021 423.479 C 121.065 422.312,117.687 420.350,114.800 418.704 C 114.030 418.266,109.890 415.879,105.600 413.400 C 101.310 410.921,97.170 408.534,96.400 408.096 C 95.630 407.657,93.830 406.624,92.400 405.800 C 90.970 404.976,88.990 403.849,88.000 403.297 C 87.010 402.745,86.020 402.156,85.800 401.989 C 85.414 401.696,84.220 401.010,80.400 398.886 C 79.410 398.336,78.122 397.551,77.538 397.143 C 76.954 396.734,76.385 396.400,76.272 396.400 C 76.160 396.400,70.648 393.253,64.023 389.407 C 57.399 385.561,51.218 381.983,50.289 381.456 C 47.112 379.655,43.800 377.731,40.667 375.865 C 38.944 374.839,37.470 374.000,37.392 374.000 C 37.314 374.000,35.091 372.739,32.452 371.198 C 29.813 369.657,27.372 368.287,27.027 368.155 C 26.461 367.938,26.400 371.241,26.400 402.357 " stroke="none" fill="#abebf4" fill-rule="evenodd"></path><path id="path1" d="M198.000 68.884 C 197.230 69.339,195.790 70.162,194.800 70.713 C 193.810 71.264,192.522 72.049,191.938 72.457 C 191.354 72.866,190.784 73.200,190.671 73.200 C 190.460 73.200,176.298 81.342,168.677 85.846 C 166.300 87.251,164.271 88.400,164.169 88.400 C 164.067 88.400,163.312 88.824,162.491 89.343 C 161.671 89.862,159.290 91.283,157.200 92.503 C 153.515 94.652,152.183 95.411,148.400 97.514 C 147.410 98.064,146.122 98.849,145.538 99.257 C 144.954 99.666,144.361 100.000,144.219 100.000 C 144.077 100.000,142.977 100.630,141.773 101.400 C 140.569 102.170,139.503 102.800,139.405 102.800 C 139.306 102.800,137.734 103.675,135.912 104.744 C 134.091 105.813,131.790 107.142,130.800 107.698 C 129.810 108.253,126.981 109.890,124.513 111.334 C 120.080 113.928,118.210 114.996,114.500 117.054 C 113.455 117.633,112.420 118.244,112.200 118.411 C 111.980 118.578,111.170 119.072,110.400 119.508 C 109.630 119.945,107.830 120.976,106.400 121.800 C 104.970 122.624,102.999 123.752,102.021 124.306 C 101.043 124.860,99.333 125.853,98.221 126.513 C 97.109 127.172,95.570 128.069,94.800 128.505 C 94.030 128.941,88.810 131.956,83.200 135.204 C 73.113 141.044,71.512 141.961,68.000 143.914 C 67.010 144.464,65.722 145.249,65.138 145.657 C 64.554 146.066,63.952 146.400,63.800 146.400 C 63.648 146.400,63.046 146.734,62.462 147.143 C 61.481 147.829,60.611 148.332,55.600 151.109 C 54.610 151.658,53.620 152.237,53.400 152.396 C 53.180 152.555,52.010 153.228,50.800 153.893 C 49.590 154.557,46.104 156.563,43.053 158.350 C 40.001 160.138,37.433 161.600,37.344 161.600 C 37.255 161.600,36.512 162.023,35.691 162.541 C 32.330 164.662,27.163 167.600,26.794 167.600 C 26.537 167.600,26.400 190.554,26.400 233.800 C 26.400 296.578,26.436 300.000,27.100 300.009 C 27.485 300.014,28.250 300.370,28.800 300.800 C 29.350 301.230,29.912 301.586,30.048 301.591 C 30.185 301.596,32.294 302.761,34.735 304.180 C 37.176 305.599,39.944 307.198,40.887 307.734 C 41.829 308.270,45.480 310.375,49.000 312.412 C 52.520 314.449,56.030 316.469,56.800 316.901 C 57.570 317.332,58.380 317.822,58.600 317.989 C 58.820 318.156,59.855 318.767,60.900 319.346 C 64.634 321.417,66.414 322.435,70.876 325.054 C 73.364 326.514,76.171 328.144,77.113 328.675 C 78.056 329.206,80.824 330.801,83.265 332.220 C 85.706 333.639,87.752 334.800,87.811 334.800 C 87.870 334.800,89.062 335.492,90.459 336.337 C 91.857 337.183,93.810 338.327,94.800 338.881 C 99.100 341.284,99.999 341.797,103.600 343.897 C 105.690 345.117,108.071 346.538,108.891 347.057 C 109.712 347.576,110.457 348.000,110.547 348.000 C 110.638 348.000,113.207 349.465,116.256 351.255 C 119.305 353.046,122.430 354.866,123.200 355.302 C 123.970 355.737,129.820 359.111,136.200 362.800 C 142.580 366.489,148.520 369.907,149.400 370.396 C 150.280 370.885,151.180 371.422,151.400 371.589 C 151.620 371.756,152.700 372.392,153.800 373.002 C 154.900 373.612,156.610 374.562,157.600 375.113 C 158.590 375.664,159.878 376.449,160.462 376.857 C 161.046 377.266,161.626 377.600,161.750 377.600 C 161.875 377.600,163.377 378.433,165.088 379.452 C 166.800 380.470,169.010 381.758,170.000 382.313 C 170.990 382.868,175.130 385.254,179.200 387.615 C 183.270 389.976,187.230 392.266,188.000 392.705 C 188.770 393.143,190.570 394.176,192.000 395.000 C 193.430 395.824,195.230 396.858,196.000 397.297 C 196.770 397.737,197.755 398.345,198.189 398.648 C 199.304 399.428,200.200 399.338,202.123 398.257 C 203.045 397.738,204.520 396.910,205.400 396.417 C 206.280 395.924,207.629 395.134,208.398 394.660 C 209.167 394.187,210.470 393.440,211.294 393.000 C 212.118 392.560,214.999 390.914,217.696 389.342 C 220.393 387.770,223.320 386.086,224.200 385.599 C 225.080 385.113,225.980 384.578,226.200 384.411 C 226.420 384.244,227.410 383.654,228.400 383.099 C 230.761 381.777,240.101 376.399,244.200 374.000 C 246.575 372.610,250.635 370.282,252.400 369.297 C 253.390 368.745,254.380 368.156,254.600 367.989 C 254.820 367.822,255.630 367.328,256.400 366.892 C 257.170 366.455,258.970 365.423,260.400 364.597 C 261.830 363.772,263.990 362.554,265.200 361.891 C 266.410 361.227,267.580 360.555,267.800 360.396 C 268.020 360.237,269.010 359.654,270.000 359.101 C 270.990 358.547,274.296 356.633,277.347 354.847 C 280.399 353.061,282.958 351.600,283.036 351.600 C 283.113 351.600,284.577 350.767,286.288 349.749 C 288.000 348.730,290.030 347.535,290.800 347.092 C 291.570 346.649,292.740 345.954,293.400 345.547 C 294.060 345.140,294.870 344.680,295.200 344.525 C 295.530 344.369,298.838 342.478,302.551 340.321 C 306.264 338.165,309.346 336.400,309.400 336.400 C 309.454 336.400,311.148 335.410,313.164 334.200 C 315.181 332.990,316.931 332.000,317.054 332.000 C 317.176 332.000,317.754 331.666,318.338 331.257 C 318.922 330.849,320.210 330.059,321.200 329.503 C 322.190 328.947,325.880 326.825,329.400 324.788 C 340.776 318.204,343.003 316.923,345.200 315.697 C 346.190 315.145,347.180 314.563,347.400 314.404 C 347.620 314.245,348.790 313.571,350.000 312.906 C 351.210 312.241,354.219 310.514,356.687 309.069 C 359.154 307.623,361.944 306.004,362.887 305.470 C 363.829 304.936,365.770 303.824,367.200 303.000 C 368.630 302.176,370.390 301.164,371.112 300.751 C 371.834 300.338,372.689 300.000,373.012 300.000 C 373.527 300.000,373.600 291.780,373.600 233.894 L 373.600 167.789 372.100 167.099 C 370.595 166.407,367.863 164.881,366.006 163.694 C 365.459 163.344,364.109 162.574,363.006 161.982 C 361.903 161.390,358.504 159.442,355.453 157.653 C 352.401 155.864,349.819 154.400,349.714 154.400 C 349.609 154.400,349.046 154.066,348.462 153.657 C 347.878 153.249,346.590 152.464,345.600 151.914 C 343.755 150.888,342.840 150.364,338.500 147.849 C 337.125 147.052,334.875 145.748,333.500 144.951 C 332.125 144.154,330.460 143.186,329.800 142.800 C 327.537 141.476,323.399 139.101,321.600 138.093 C 320.610 137.539,319.322 136.751,318.738 136.343 C 318.154 135.934,317.581 135.600,317.465 135.600 C 317.348 135.600,316.386 135.078,315.327 134.439 C 313.500 133.339,294.293 122.245,291.100 120.445 C 290.275 119.980,288.925 119.221,288.100 118.757 C 287.275 118.294,286.420 117.778,286.200 117.611 C 285.980 117.444,284.945 116.833,283.900 116.254 C 280.169 114.185,278.387 113.165,273.924 110.547 C 271.436 109.086,268.770 107.536,268.000 107.101 C 267.230 106.666,262.010 103.650,256.400 100.400 C 250.790 97.150,245.570 94.132,244.800 93.694 C 242.813 92.564,239.708 90.774,230.800 85.623 C 226.510 83.142,222.190 80.656,221.200 80.099 C 220.210 79.542,218.922 78.751,218.338 78.343 C 217.754 77.934,217.177 77.600,217.056 77.600 C 216.934 77.600,215.963 77.086,214.897 76.457 C 213.830 75.828,212.157 74.863,211.179 74.311 C 210.201 73.760,207.365 72.114,204.877 70.654 C 199.847 67.702,199.953 67.730,198.000 68.884 M231.100 224.652 C 231.954 224.881,232.000 225.090,232.000 228.709 C 232.000 232.651,231.782 233.259,229.506 235.666 C 229.228 235.960,228.280 237.101,227.401 238.201 C 226.521 239.300,225.582 240.470,225.313 240.800 C 222.810 243.875,211.001 258.615,209.600 260.415 C 207.356 263.296,190.282 284.527,189.989 284.800 C 189.871 284.910,187.621 287.700,184.989 291.000 C 182.357 294.300,179.894 297.342,179.516 297.761 C 178.256 299.153,179.104 299.200,205.381 299.200 C 228.842 299.200,231.539 299.265,231.757 299.833 C 232.334 301.337,232.019 308.707,231.367 308.957 C 230.058 309.460,164.989 309.229,164.480 308.720 C 164.181 308.421,164.000 306.940,164.000 304.790 L 164.000 301.339 168.700 295.519 C 173.611 289.437,185.187 275.181,186.336 273.800 C 186.702 273.360,187.721 272.100,188.601 271.000 C 189.480 269.900,190.300 268.910,190.421 268.800 C 190.673 268.573,194.412 263.965,197.400 260.201 C 198.500 258.815,200.559 256.268,201.975 254.541 C 214.065 239.797,218.400 234.438,218.400 234.236 C 218.400 234.106,206.430 234.000,191.800 234.000 L 165.200 234.000 165.200 229.429 C 165.200 225.413,165.285 224.836,165.900 224.676 C 166.962 224.398,230.067 224.375,231.100 224.652 " stroke="none" fill="#14dcd3" fill-rule="evenodd"></path><path id="path2" d="M197.400 0.287 C 196.960 0.394,196.027 0.913,195.327 1.441 C 194.626 1.968,193.861 2.400,193.627 2.400 C 193.392 2.400,193.200 2.580,193.200 2.800 C 193.200 3.020,192.840 3.200,192.400 3.200 C 191.960 3.200,191.600 3.380,191.600 3.600 C 191.600 3.820,191.392 4.000,191.138 4.000 C 190.884 4.000,190.086 4.450,189.364 5.000 C 188.643 5.550,187.861 6.000,187.627 6.000 C 187.392 6.000,187.200 6.180,187.200 6.400 C 187.200 6.620,186.940 6.800,186.623 6.800 C 185.876 6.800,183.095 8.409,182.680 9.081 C 182.504 9.367,182.009 9.600,181.580 9.600 C 181.151 9.600,180.800 9.780,180.800 10.000 C 180.800 10.220,180.440 10.400,180.000 10.400 C 179.560 10.400,179.200 10.546,179.200 10.725 C 179.200 10.904,178.570 11.298,177.800 11.600 C 177.030 11.902,176.400 12.296,176.400 12.475 C 176.400 12.654,176.124 12.800,175.787 12.800 C 175.451 12.800,175.071 13.070,174.945 13.400 C 174.818 13.730,174.284 14.000,173.757 14.000 C 173.231 14.000,172.800 14.142,172.800 14.316 C 172.800 14.490,171.810 15.134,170.600 15.747 C 169.390 16.360,168.400 17.027,168.400 17.230 C 168.400 17.434,168.040 17.600,167.600 17.600 C 167.160 17.600,166.800 17.780,166.800 18.000 C 166.800 18.220,166.530 18.400,166.200 18.400 C 165.870 18.400,165.600 18.580,165.600 18.800 C 165.600 19.020,165.240 19.200,164.800 19.200 C 164.360 19.200,164.000 19.380,164.000 19.600 C 164.000 19.820,163.634 20.000,163.187 20.000 C 162.741 20.000,162.271 20.270,162.145 20.600 C 162.018 20.930,161.698 21.200,161.433 21.200 C 161.168 21.200,160.564 21.560,160.092 22.000 C 159.620 22.440,158.866 22.800,158.417 22.800 C 157.968 22.800,157.600 22.980,157.600 23.200 C 157.600 23.420,157.324 23.600,156.987 23.600 C 156.651 23.600,156.271 23.870,156.145 24.200 C 156.018 24.530,155.574 24.800,155.157 24.800 C 154.741 24.800,154.400 24.980,154.400 25.200 C 154.400 25.420,154.130 25.600,153.800 25.600 C 153.470 25.600,153.200 25.780,153.200 26.000 C 153.200 26.220,152.935 26.400,152.612 26.400 C 151.808 26.400,149.074 27.961,148.680 28.644 C 148.504 28.950,148.009 29.200,147.580 29.200 C 147.151 29.200,146.800 29.380,146.800 29.600 C 146.800 29.820,146.440 30.000,146.000 30.000 C 145.560 30.000,145.200 30.180,145.200 30.400 C 145.200 30.620,144.956 30.800,144.658 30.800 C 144.361 30.800,143.631 31.250,143.038 31.800 C 142.444 32.350,141.698 32.800,141.379 32.800 C 141.061 32.800,140.800 32.980,140.800 33.200 C 140.800 33.420,140.535 33.600,140.212 33.600 C 139.408 33.600,136.674 35.161,136.280 35.844 C 136.104 36.150,135.609 36.400,135.180 36.400 C 134.751 36.400,134.400 36.580,134.400 36.800 C 134.400 37.020,134.040 37.200,133.600 37.200 C 133.160 37.200,132.800 37.358,132.800 37.551 C 132.800 37.745,132.215 38.140,131.500 38.429 C 130.785 38.718,130.110 39.055,130.000 39.177 C 129.720 39.489,128.432 40.261,126.900 41.035 C 126.185 41.396,125.600 41.851,125.600 42.046 C 125.600 42.241,125.345 42.400,125.032 42.400 C 124.319 42.400,122.006 43.698,122.003 44.100 C 122.001 44.265,121.640 44.400,121.200 44.400 C 120.760 44.400,120.400 44.580,120.400 44.800 C 120.400 45.020,120.130 45.200,119.800 45.200 C 119.470 45.200,119.200 45.380,119.200 45.600 C 119.200 45.820,118.840 46.000,118.400 46.000 C 117.960 46.000,117.600 46.180,117.600 46.400 C 117.600 46.620,117.234 46.800,116.787 46.800 C 116.341 46.800,115.871 47.070,115.745 47.400 C 115.618 47.730,115.298 48.000,115.033 48.000 C 114.768 48.000,114.164 48.360,113.692 48.800 C 113.220 49.240,112.466 49.600,112.017 49.600 C 111.568 49.600,111.200 49.780,111.200 50.000 C 111.200 50.220,110.992 50.400,110.738 50.400 C 110.484 50.400,109.686 50.850,108.964 51.400 C 108.243 51.950,107.461 52.400,107.227 52.400 C 106.992 52.400,106.800 52.580,106.800 52.800 C 106.800 53.020,106.575 53.200,106.300 53.199 C 105.422 53.197,102.400 54.980,102.400 55.499 C 102.400 55.775,101.950 56.000,101.400 56.000 C 100.850 56.000,100.400 56.180,100.400 56.400 C 100.400 56.620,100.040 56.800,99.600 56.800 C 99.160 56.800,98.800 56.946,98.800 57.125 C 98.800 57.304,98.170 57.698,97.400 58.000 C 96.630 58.302,96.000 58.786,96.000 59.075 C 96.000 59.364,95.640 59.600,95.200 59.600 C 94.760 59.600,94.400 59.780,94.400 60.000 C 94.400 60.220,94.140 60.400,93.821 60.400 C 93.151 60.400,88.265 63.175,88.067 63.669 C 87.993 63.851,87.588 64.000,87.167 64.000 C 86.745 64.000,86.400 64.136,86.400 64.302 C 86.400 64.469,85.815 64.859,85.100 65.170 C 84.385 65.481,83.710 65.840,83.600 65.968 C 83.260 66.362,81.836 67.211,81.100 67.458 C 80.715 67.588,80.400 67.852,80.400 68.047 C 80.400 68.241,80.130 68.400,79.800 68.400 C 79.470 68.400,79.200 68.580,79.200 68.800 C 79.200 69.020,78.750 69.200,78.200 69.200 C 77.650 69.200,77.200 69.380,77.200 69.600 C 77.200 69.820,76.924 70.000,76.587 70.000 C 76.251 70.000,75.871 70.270,75.745 70.600 C 75.618 70.930,75.174 71.200,74.757 71.200 C 74.341 71.200,74.000 71.380,74.000 71.600 C 74.000 71.820,73.730 72.000,73.400 72.000 C 73.070 72.000,72.800 72.180,72.800 72.400 C 72.800 72.620,72.440 72.800,72.000 72.800 C 71.560 72.800,71.200 72.944,71.200 73.120 C 71.200 73.295,70.570 73.667,69.800 73.946 C 69.030 74.224,68.400 74.607,68.400 74.797 C 68.400 75.204,66.116 76.400,65.339 76.400 C 65.042 76.400,64.800 76.580,64.800 76.800 C 64.800 77.020,64.573 77.200,64.296 77.200 C 64.019 77.200,63.307 77.650,62.713 78.200 C 62.120 78.750,61.357 79.200,61.017 79.200 C 60.678 79.200,60.400 79.380,60.400 79.600 C 60.400 79.820,60.175 80.000,59.900 79.999 C 59.022 79.997,56.000 81.780,56.000 82.299 C 56.000 82.575,55.550 82.800,55.000 82.800 C 54.450 82.800,54.000 82.980,54.000 83.200 C 54.000 83.420,53.640 83.600,53.200 83.600 C 52.760 83.600,52.400 83.768,52.400 83.974 C 52.400 84.180,51.770 84.576,51.000 84.854 C 50.230 85.133,49.600 85.505,49.600 85.680 C 49.600 85.856,49.324 86.000,48.987 86.000 C 48.651 86.000,48.271 86.270,48.145 86.600 C 48.018 86.930,47.646 87.200,47.319 87.200 C 46.991 87.200,46.246 87.523,45.662 87.917 C 45.078 88.311,43.925 88.982,43.100 89.408 C 42.275 89.834,41.600 90.321,41.600 90.491 C 41.600 90.661,41.240 90.800,40.800 90.800 C 40.360 90.800,40.000 90.980,40.000 91.200 C 40.000 91.420,39.730 91.600,39.400 91.600 C 39.070 91.600,38.800 91.780,38.800 92.000 C 38.800 92.220,38.440 92.400,38.000 92.400 C 37.560 92.400,37.200 92.580,37.200 92.800 C 37.200 93.020,36.834 93.200,36.387 93.200 C 35.941 93.200,35.471 93.470,35.345 93.800 C 35.218 94.130,34.898 94.400,34.633 94.400 C 34.368 94.400,33.764 94.760,33.292 95.200 C 32.820 95.640,32.066 96.000,31.617 96.000 C 31.168 96.000,30.800 96.180,30.800 96.400 C 30.800 96.620,30.524 96.800,30.187 96.800 C 29.851 96.800,29.483 97.039,29.371 97.332 C 29.259 97.624,28.544 98.108,27.783 98.407 L 26.400 98.949 26.400 133.275 C 26.400 155.570,26.538 167.600,26.794 167.600 C 27.163 167.600,32.330 164.662,35.691 162.541 C 36.512 162.023,37.255 161.600,37.344 161.600 C 37.433 161.600,40.001 160.138,43.053 158.350 C 46.104 156.563,49.590 154.557,50.800 153.893 C 52.010 153.228,53.180 152.555,53.400 152.396 C 53.620 152.237,54.655 151.633,55.700 151.054 C 60.727 148.266,61.472 147.835,62.462 147.143 C 63.046 146.734,63.648 146.400,63.800 146.400 C 63.952 146.400,64.554 146.066,65.138 145.657 C 65.722 145.249,67.010 144.464,68.000 143.914 C 71.512 141.961,73.113 141.044,83.200 135.204 C 88.810 131.956,94.030 128.941,94.800 128.505 C 95.570 128.069,97.109 127.172,98.221 126.513 C 99.333 125.853,101.043 124.860,102.021 124.306 C 102.999 123.752,104.970 122.624,106.400 121.800 C 107.830 120.976,109.630 119.945,110.400 119.508 C 111.170 119.072,111.980 118.578,112.200 118.411 C 112.420 118.244,113.500 117.608,114.600 116.998 C 118.338 114.924,120.021 113.963,124.513 111.334 C 126.981 109.890,129.810 108.253,130.800 107.698 C 131.790 107.142,134.091 105.813,135.912 104.744 C 137.734 103.675,139.306 102.800,139.405 102.800 C 139.503 102.800,140.569 102.170,141.773 101.400 C 142.977 100.630,144.077 100.000,144.219 100.000 C 144.361 100.000,144.954 99.666,145.538 99.257 C 146.122 98.849,147.410 98.064,148.400 97.514 C 152.183 95.411,153.515 94.652,157.200 92.503 C 159.290 91.283,161.671 89.862,162.491 89.343 C 163.312 88.824,164.067 88.400,164.169 88.400 C 164.271 88.400,166.300 87.251,168.677 85.846 C 176.298 81.342,190.460 73.200,190.671 73.200 C 190.784 73.200,191.354 72.866,191.938 72.457 C 192.522 72.049,193.810 71.264,194.800 70.714 C 195.790 70.163,197.280 69.328,198.112 68.857 C 200.104 67.728,199.715 67.625,204.877 70.654 C 207.365 72.114,210.201 73.760,211.179 74.311 C 212.157 74.863,213.830 75.828,214.897 76.457 C 215.963 77.086,216.934 77.600,217.056 77.600 C 217.177 77.600,217.754 77.934,218.338 78.343 C 218.922 78.751,220.210 79.542,221.200 80.099 C 222.190 80.656,226.510 83.142,230.800 85.623 C 239.708 90.774,242.813 92.564,244.800 93.694 C 245.570 94.132,250.790 97.150,256.400 100.400 C 262.010 103.650,267.230 106.666,268.000 107.101 C 268.770 107.536,271.436 109.086,273.924 110.547 C 278.387 113.165,280.169 114.185,283.900 116.254 C 284.945 116.833,285.980 117.444,286.200 117.611 C 286.420 117.778,287.275 118.294,288.100 118.757 C 288.925 119.221,290.275 119.980,291.100 120.445 C 294.293 122.245,313.500 133.339,315.327 134.439 C 316.386 135.078,317.348 135.600,317.465 135.600 C 317.581 135.600,318.154 135.934,318.738 136.343 C 319.322 136.751,320.610 137.539,321.600 138.093 C 323.399 139.101,327.537 141.476,329.800 142.800 C 330.460 143.186,332.125 144.154,333.500 144.951 C 334.875 145.748,337.125 147.052,338.500 147.849 C 342.840 150.364,343.755 150.888,345.600 151.914 C 346.590 152.464,347.878 153.249,348.462 153.657 C 349.046 154.066,349.609 154.400,349.714 154.400 C 349.819 154.400,352.401 155.864,355.453 157.653 C 358.504 159.442,361.986 161.434,363.191 162.079 C 364.396 162.725,365.566 163.397,365.791 163.573 C 366.016 163.749,367.010 164.342,368.000 164.890 C 368.990 165.438,370.480 166.272,371.312 166.743 C 372.144 167.215,372.999 167.600,373.212 167.600 C 373.460 167.600,373.600 155.147,373.600 133.200 C 373.600 99.067,373.594 98.800,372.800 98.800 C 372.360 98.800,372.000 98.620,372.000 98.400 C 372.000 98.180,371.789 98.000,371.531 98.000 C 371.274 98.000,370.779 97.748,370.431 97.441 C 369.590 96.695,366.880 95.200,366.370 95.200 C 366.147 95.200,365.480 94.750,364.887 94.200 C 364.293 93.650,363.581 93.200,363.304 93.200 C 363.027 93.200,362.800 93.020,362.800 92.800 C 362.800 92.580,362.440 92.400,362.000 92.400 C 361.560 92.400,361.200 92.220,361.200 92.000 C 361.200 91.780,360.816 91.600,360.347 91.600 C 359.878 91.600,359.203 91.280,358.847 90.890 C 357.939 89.893,356.144 88.800,355.414 88.800 C 355.076 88.800,354.800 88.664,354.800 88.498 C 354.800 88.331,354.215 87.937,353.500 87.622 C 352.785 87.307,351.981 86.858,351.714 86.625 C 350.327 85.413,349.983 85.200,349.417 85.200 C 349.078 85.200,348.800 85.054,348.800 84.875 C 348.800 84.696,348.170 84.302,347.400 84.000 C 346.630 83.698,346.000 83.304,346.000 83.125 C 346.000 82.946,345.569 82.800,345.043 82.800 C 344.516 82.800,343.982 82.530,343.855 82.200 C 343.729 81.870,343.349 81.600,343.013 81.600 C 342.676 81.600,342.400 81.420,342.400 81.200 C 342.400 80.980,342.130 80.800,341.800 80.800 C 341.470 80.800,341.200 80.620,341.200 80.400 C 341.200 80.180,340.840 80.000,340.400 80.000 C 339.960 80.000,339.600 79.820,339.600 79.600 C 339.600 79.380,339.259 79.200,338.843 79.200 C 338.426 79.200,337.982 78.930,337.855 78.600 C 337.729 78.270,337.342 78.000,336.996 78.000 C 336.650 78.000,335.980 77.640,335.508 77.200 C 335.036 76.760,334.413 76.400,334.125 76.400 C 333.836 76.400,333.600 76.220,333.600 76.000 C 333.600 75.780,333.249 75.600,332.821 75.600 C 332.392 75.600,331.556 75.150,330.962 74.600 C 330.369 74.050,329.639 73.600,329.342 73.600 C 329.044 73.600,328.800 73.420,328.800 73.200 C 328.800 72.980,328.440 72.800,328.000 72.800 C 327.560 72.800,327.200 72.620,327.200 72.400 C 327.200 72.180,326.840 72.000,326.400 72.000 C 325.960 72.000,325.600 71.820,325.600 71.600 C 325.600 71.380,325.330 71.200,325.000 71.200 C 324.670 71.200,324.399 71.065,324.397 70.900 C 324.394 70.498,322.081 69.200,321.368 69.200 C 321.055 69.200,320.800 69.020,320.800 68.800 C 320.800 68.580,320.440 68.400,320.000 68.400 C 319.560 68.400,319.200 68.220,319.200 68.000 C 319.200 67.780,319.007 67.600,318.771 67.600 C 318.536 67.600,318.092 67.375,317.785 67.100 C 316.398 65.856,315.994 65.600,315.417 65.600 C 315.078 65.600,314.800 65.420,314.800 65.200 C 314.800 64.980,314.474 64.800,314.075 64.800 C 313.677 64.800,313.002 64.484,312.575 64.097 C 311.341 62.978,309.681 62.000,309.014 62.000 C 308.676 62.000,308.400 61.820,308.400 61.600 C 308.400 61.380,308.130 61.200,307.800 61.200 C 307.470 61.200,307.200 61.020,307.200 60.800 C 307.200 60.580,306.840 60.400,306.400 60.400 C 305.960 60.400,305.600 60.220,305.600 60.000 C 305.600 59.780,305.240 59.600,304.800 59.600 C 304.360 59.600,304.000 59.433,304.000 59.229 C 304.000 58.895,303.184 58.386,300.503 57.048 C 300.010 56.801,299.605 56.465,299.603 56.300 C 299.601 56.135,299.169 56.000,298.643 56.000 C 298.116 56.000,297.582 55.730,297.455 55.400 C 297.329 55.070,296.949 54.800,296.613 54.800 C 296.276 54.800,296.000 54.620,296.000 54.400 C 296.000 54.180,295.730 54.000,295.400 54.000 C 295.070 54.000,294.800 53.820,294.800 53.600 C 294.800 53.380,294.440 53.200,294.000 53.200 C 293.560 53.200,293.200 53.020,293.200 52.800 C 293.200 52.580,292.840 52.400,292.400 52.400 C 291.960 52.400,291.600 52.233,291.600 52.029 C 291.600 51.825,291.105 51.405,290.500 51.095 C 289.895 50.784,288.720 50.141,287.888 49.665 C 287.056 49.189,286.193 48.800,285.970 48.800 C 285.747 48.800,285.080 48.350,284.487 47.800 C 283.893 47.250,283.181 46.800,282.904 46.800 C 282.627 46.800,282.400 46.620,282.400 46.400 C 282.400 46.180,282.040 46.000,281.600 46.000 C 281.160 46.000,280.800 45.820,280.800 45.600 C 280.800 45.380,280.440 45.200,280.000 45.200 C 279.560 45.200,279.200 45.020,279.200 44.800 C 279.200 44.580,278.930 44.400,278.600 44.400 C 278.270 44.400,277.999 44.265,277.997 44.100 C 277.994 43.698,275.681 42.400,274.968 42.400 C 274.655 42.400,274.400 42.220,274.400 42.000 C 274.400 41.780,274.216 41.600,273.991 41.600 C 273.506 41.600,270.258 39.531,270.067 39.100 C 269.993 38.935,269.588 38.800,269.167 38.800 C 268.745 38.800,268.400 38.654,268.400 38.475 C 268.400 38.296,267.770 37.902,267.000 37.600 C 266.230 37.298,265.600 36.904,265.600 36.725 C 265.600 36.546,265.139 36.400,264.576 36.400 C 264.013 36.400,263.661 36.225,263.793 36.012 C 263.925 35.798,263.575 35.509,263.016 35.368 C 262.457 35.228,262.000 34.953,262.000 34.757 C 262.000 34.560,261.730 34.400,261.400 34.400 C 261.070 34.400,260.800 34.220,260.800 34.000 C 260.800 33.780,260.440 33.600,260.000 33.600 C 259.560 33.600,259.200 33.420,259.200 33.200 C 259.200 32.980,258.840 32.800,258.400 32.800 C 257.960 32.800,257.600 32.633,257.600 32.429 C 257.600 32.226,256.610 31.574,255.400 30.982 C 254.190 30.390,253.200 29.747,253.200 29.553 C 253.200 29.359,252.750 29.200,252.200 29.200 C 251.578 29.200,251.200 28.973,251.200 28.600 C 251.200 28.270,250.922 28.000,250.583 28.000 C 250.244 28.000,249.580 27.640,249.108 27.200 C 248.636 26.760,247.923 26.400,247.525 26.400 C 247.126 26.400,246.800 26.220,246.800 26.000 C 246.800 25.780,246.440 25.600,246.000 25.600 C 245.560 25.600,245.200 25.420,245.200 25.200 C 245.200 24.980,245.007 24.800,244.771 24.800 C 244.536 24.800,244.092 24.575,243.785 24.300 C 242.404 23.061,241.996 22.800,241.440 22.800 C 241.114 22.800,240.736 22.620,240.600 22.400 C 240.464 22.180,240.086 22.000,239.759 22.000 C 239.432 22.000,238.680 21.550,238.087 21.000 C 237.493 20.450,236.781 20.000,236.504 20.000 C 236.227 20.000,236.000 19.820,236.000 19.600 C 236.000 19.380,235.640 19.200,235.200 19.200 C 234.760 19.200,234.400 19.020,234.400 18.800 C 234.400 18.580,234.074 18.400,233.675 18.400 C 233.277 18.400,232.602 18.084,232.175 17.697 C 231.075 16.699,229.305 15.600,228.797 15.600 C 228.560 15.600,227.980 15.240,227.508 14.800 C 227.036 14.360,226.400 14.000,226.096 14.000 C 225.792 14.000,225.292 13.775,224.985 13.500 C 223.598 12.256,223.194 12.000,222.617 12.000 C 222.278 12.000,222.000 11.854,222.000 11.675 C 222.000 11.496,221.370 11.102,220.600 10.800 C 219.830 10.498,219.200 10.104,219.200 9.925 C 219.200 9.746,218.859 9.600,218.443 9.600 C 218.026 9.600,217.582 9.330,217.455 9.000 C 217.329 8.670,216.859 8.400,216.413 8.400 C 215.966 8.400,215.600 8.220,215.600 8.000 C 215.600 7.780,215.330 7.600,215.000 7.600 C 214.670 7.600,214.400 7.420,214.400 7.200 C 214.400 6.980,214.040 6.800,213.600 6.800 C 213.160 6.800,212.800 6.620,212.800 6.400 C 212.800 6.180,212.440 6.000,212.000 6.000 C 211.560 6.000,211.200 5.828,211.200 5.619 C 211.200 5.409,210.570 4.939,209.800 4.573 C 209.030 4.208,208.400 3.749,208.400 3.554 C 208.400 3.359,208.040 3.200,207.600 3.200 C 207.160 3.200,206.800 3.020,206.800 2.800 C 206.800 2.580,206.350 2.400,205.800 2.400 C 205.250 2.400,204.796 2.175,204.790 1.900 C 204.764 0.579,200.252 -0.406,197.400 0.287 " stroke="none" fill="#04fb84" fill-rule="evenodd"></path><path id="path3" d="M26.638 300.696 C 26.507 300.826,26.404 315.978,26.409 334.367 L 26.417 367.800 30.299 370.000 C 32.434 371.210,35.265 372.800,36.591 373.534 C 39.623 375.213,46.126 379.015,48.091 380.257 C 48.912 380.776,49.653 381.200,49.738 381.200 C 49.823 381.200,55.782 384.620,62.979 388.800 C 70.176 392.980,76.157 396.400,76.271 396.400 C 76.384 396.400,76.954 396.734,77.538 397.143 C 78.122 397.551,79.410 398.336,80.400 398.886 C 84.220 401.010,85.414 401.696,85.800 401.989 C 86.020 402.156,87.010 402.745,88.000 403.297 C 88.990 403.849,90.970 404.976,92.400 405.800 C 93.830 406.624,95.630 407.657,96.400 408.096 C 97.170 408.534,101.310 410.921,105.600 413.400 C 109.890 415.879,114.030 418.266,114.800 418.704 C 117.687 420.350,121.065 422.312,123.021 423.479 C 124.133 424.143,125.843 425.140,126.821 425.694 C 128.806 426.818,133.161 429.324,135.000 430.400 C 136.212 431.109,140.329 433.484,142.674 434.827 C 143.375 435.229,144.676 436.017,145.566 436.579 C 146.456 437.140,147.260 437.600,147.353 437.600 C 147.446 437.600,151.890 440.131,157.227 443.224 C 162.565 446.317,167.667 449.265,168.566 449.775 C 170.466 450.852,174.865 453.385,176.600 454.400 C 178.975 455.790,183.035 458.118,184.800 459.103 C 185.790 459.655,186.780 460.244,187.000 460.411 C 187.220 460.578,188.030 461.072,188.800 461.508 C 189.570 461.945,191.370 462.980,192.800 463.808 C 194.230 464.636,196.423 465.869,197.673 466.546 L 199.945 467.778 201.473 466.929 C 204.416 465.293,208.902 462.729,212.200 460.800 C 213.997 459.748,218.371 457.231,220.320 456.127 C 221.265 455.591,226.824 452.373,232.673 448.976 C 238.522 445.579,243.390 442.800,243.492 442.800 C 243.593 442.800,244.154 442.466,244.738 442.057 C 245.728 441.365,246.473 440.934,251.500 438.146 C 252.545 437.567,253.580 436.956,253.800 436.789 C 254.191 436.492,255.576 435.697,259.200 433.690 C 260.190 433.142,261.180 432.556,261.400 432.389 C 261.791 432.092,263.176 431.297,266.800 429.290 C 267.790 428.742,268.780 428.154,269.000 427.985 C 269.220 427.815,270.480 427.094,271.800 426.382 C 273.120 425.670,274.484 424.843,274.831 424.544 C 275.179 424.245,275.573 424.000,275.708 424.000 C 275.843 424.000,277.955 422.830,280.400 421.400 C 282.845 419.970,284.943 418.800,285.061 418.800 C 285.180 418.800,285.754 418.466,286.338 418.057 C 286.922 417.649,288.210 416.861,289.200 416.307 C 290.999 415.299,295.137 412.924,297.400 411.600 C 298.060 411.214,299.770 410.224,301.200 409.400 C 302.630 408.576,304.340 407.589,305.000 407.207 C 312.278 402.989,316.484 400.557,317.876 399.761 C 318.798 399.233,322.188 397.271,325.411 395.401 C 328.633 393.530,331.340 392.000,331.427 392.000 C 331.514 392.000,332.569 391.370,333.773 390.600 C 334.977 389.830,336.037 389.200,336.130 389.200 C 336.222 389.200,337.948 388.210,339.964 387.000 C 341.981 385.790,343.699 384.800,343.783 384.800 C 343.866 384.800,345.344 383.964,347.067 382.942 C 348.790 381.921,350.740 380.773,351.400 380.391 C 355.360 378.103,358.017 376.579,359.600 375.688 C 360.590 375.131,362.543 373.983,363.941 373.137 C 365.338 372.292,366.538 371.600,366.608 371.600 C 366.677 371.600,368.104 370.790,369.778 369.800 C 371.453 368.810,372.998 368.000,373.212 368.000 C 373.460 368.000,373.600 355.798,373.600 334.200 C 373.600 315.610,373.527 300.400,373.438 300.400 C 373.212 300.400,369.845 302.155,369.600 302.400 C 369.420 302.580,368.043 303.367,365.800 304.571 C 365.360 304.807,364.910 305.099,364.800 305.221 C 364.690 305.342,363.970 305.756,363.200 306.141 C 362.430 306.526,360.990 307.357,360.000 307.989 C 359.010 308.620,357.975 309.151,357.700 309.169 C 357.425 309.186,357.200 309.380,357.200 309.600 C 357.200 309.820,357.035 310.000,356.833 310.000 C 356.631 310.000,355.096 310.810,353.422 311.800 C 351.747 312.790,350.283 313.600,350.169 313.600 C 350.055 313.600,348.977 314.230,347.773 315.000 C 346.569 315.770,345.408 316.400,345.192 316.400 C 344.977 316.400,344.800 316.580,344.800 316.800 C 344.800 317.020,344.440 317.200,344.000 317.200 C 343.560 317.200,343.200 317.359,343.200 317.553 C 343.200 317.748,342.885 318.016,342.500 318.151 C 342.115 318.285,340.990 318.922,340.000 319.566 C 339.010 320.210,337.967 320.751,337.683 320.769 C 337.399 320.786,336.949 320.983,336.683 321.206 C 335.725 322.010,333.356 323.464,332.091 324.024 C 331.381 324.338,330.800 324.731,330.800 324.898 C 330.800 325.064,330.623 325.200,330.408 325.200 C 330.192 325.200,329.067 325.790,327.908 326.512 C 326.748 327.234,325.260 328.088,324.600 328.411 C 323.940 328.734,323.310 329.089,323.200 329.199 C 323.090 329.310,322.640 329.596,322.200 329.836 C 321.197 330.383,318.052 332.130,316.768 332.854 C 316.236 333.154,315.710 333.490,315.600 333.600 C 315.382 333.818,313.136 335.064,311.703 335.763 C 311.210 336.003,310.805 336.335,310.803 336.500 C 310.801 336.665,310.455 336.800,310.033 336.800 C 309.612 336.800,309.207 336.944,309.133 337.120 C 309.060 337.297,308.100 337.947,307.000 338.566 C 305.900 339.185,304.190 340.147,303.200 340.703 C 302.210 341.259,300.922 342.049,300.338 342.457 C 299.754 342.866,299.079 343.200,298.838 343.200 C 298.597 343.200,298.400 343.380,298.400 343.600 C 298.400 343.820,298.040 344.000,297.600 344.000 C 297.160 344.000,296.800 344.180,296.800 344.400 C 296.800 344.620,296.623 344.800,296.408 344.800 C 296.192 344.800,295.067 345.390,293.908 346.112 C 292.748 346.834,291.260 347.688,290.600 348.011 C 289.940 348.334,289.310 348.689,289.200 348.799 C 288.875 349.126,287.499 349.929,286.000 350.668 C 285.230 351.048,284.510 351.472,284.400 351.611 C 284.290 351.750,283.615 352.119,282.900 352.430 C 282.185 352.741,281.600 353.093,281.600 353.213 C 281.600 353.333,280.565 353.964,279.300 354.616 C 278.035 355.267,276.940 355.935,276.867 356.100 C 276.793 356.265,276.560 356.400,276.347 356.400 C 276.135 356.400,275.025 356.987,273.881 357.704 C 272.736 358.421,271.260 359.276,270.600 359.603 C 269.940 359.931,269.310 360.289,269.200 360.399 C 268.819 360.781,267.393 361.599,265.900 362.293 C 265.075 362.675,264.400 363.126,264.400 363.294 C 264.400 363.462,264.040 363.600,263.600 363.600 C 263.160 363.600,262.800 363.780,262.800 364.000 C 262.800 364.220,262.589 364.400,262.331 364.400 C 262.074 364.400,261.579 364.645,261.231 364.943 C 260.884 365.242,259.340 366.166,257.800 366.997 C 256.260 367.828,254.522 368.843,253.938 369.254 C 253.354 369.664,252.679 370.000,252.438 370.000 C 252.197 370.000,252.000 370.180,252.000 370.400 C 252.000 370.620,251.640 370.800,251.200 370.800 C 250.760 370.800,250.400 370.980,250.400 371.200 C 250.400 371.420,250.203 371.600,249.962 371.600 C 249.721 371.600,249.046 371.934,248.462 372.343 C 247.878 372.751,246.545 373.561,245.500 374.143 C 244.455 374.724,242.745 375.676,241.700 376.257 C 240.655 376.839,239.350 377.620,238.800 377.994 C 238.250 378.368,237.215 378.927,236.500 379.235 C 235.785 379.543,235.200 379.893,235.200 380.013 C 235.200 380.133,234.165 380.764,232.900 381.416 C 231.635 382.067,230.540 382.735,230.467 382.900 C 230.393 383.065,230.183 383.200,230.000 383.200 C 229.816 383.200,228.296 384.010,226.622 385.000 C 224.947 385.990,223.402 386.800,223.188 386.800 C 222.975 386.800,222.800 386.941,222.800 387.112 C 222.800 387.284,222.305 387.631,221.700 387.884 C 220.259 388.486,218.235 389.721,218.067 390.100 C 217.993 390.265,217.588 390.400,217.167 390.400 C 216.745 390.400,216.400 390.580,216.400 390.800 C 216.400 391.020,216.189 391.200,215.931 391.200 C 215.674 391.200,215.179 391.446,214.831 391.746 C 214.484 392.046,212.760 393.060,211.000 394.000 C 209.240 394.940,207.516 395.954,207.169 396.254 C 206.821 396.554,206.326 396.800,206.069 396.800 C 205.811 396.800,205.600 396.980,205.600 397.200 C 205.600 397.420,205.240 397.600,204.800 397.600 C 204.360 397.600,204.000 397.759,204.000 397.953 C 204.000 398.148,203.685 398.413,203.300 398.542 C 202.915 398.672,201.989 399.134,201.243 399.570 C 199.919 400.342,198.167 400.027,197.200 398.844 C 197.090 398.709,196.460 398.333,195.800 398.008 C 195.140 397.684,193.913 396.999,193.074 396.488 C 191.499 395.527,189.910 394.615,186.800 392.886 C 185.810 392.336,184.522 391.551,183.938 391.143 C 183.354 390.734,182.679 390.400,182.438 390.400 C 182.197 390.400,182.000 390.220,182.000 390.000 C 182.000 389.780,181.738 389.600,181.418 389.600 C 180.890 389.600,178.522 388.218,177.317 387.206 C 177.051 386.983,176.556 386.800,176.217 386.800 C 175.878 386.800,175.600 386.620,175.600 386.400 C 175.600 386.180,175.435 386.000,175.233 386.000 C 175.031 386.000,173.496 385.190,171.822 384.200 C 170.147 383.210,168.696 382.400,168.596 382.400 C 168.497 382.400,167.431 381.770,166.227 381.000 C 165.023 380.230,163.850 379.600,163.619 379.600 C 163.389 379.600,163.200 379.420,163.200 379.200 C 163.200 378.980,162.840 378.800,162.400 378.800 C 161.960 378.800,161.600 378.620,161.600 378.400 C 161.600 378.180,161.330 378.000,161.000 378.000 C 160.670 378.000,160.400 377.820,160.400 377.600 C 160.400 377.380,160.216 377.200,159.992 377.200 C 159.768 377.200,158.913 376.780,158.092 376.268 C 157.271 375.755,155.340 374.650,153.800 373.812 C 152.260 372.974,150.910 372.178,150.800 372.044 C 150.690 371.909,150.060 371.529,149.400 371.200 C 148.740 370.871,148.110 370.502,148.000 370.380 C 147.890 370.258,147.170 369.848,146.400 369.468 C 144.901 368.729,143.525 367.926,143.200 367.599 C 143.090 367.489,142.460 367.133,141.800 366.808 C 141.140 366.484,139.913 365.799,139.074 365.288 C 138.235 364.776,136.885 363.981,136.074 363.522 C 134.091 362.399,131.182 360.771,130.200 360.236 C 129.760 359.996,129.310 359.710,129.200 359.600 C 129.090 359.490,128.190 358.968,127.200 358.441 C 126.210 357.913,125.130 357.275,124.800 357.023 C 124.470 356.772,123.660 356.305,123.000 355.987 C 122.340 355.668,120.864 354.821,119.719 354.104 C 118.575 353.387,117.450 352.800,117.219 352.800 C 116.989 352.800,116.800 352.654,116.800 352.475 C 116.800 352.296,116.170 351.902,115.400 351.600 C 114.630 351.298,114.000 350.904,114.000 350.725 C 114.000 350.546,113.835 350.400,113.633 350.400 C 113.431 350.400,111.946 349.623,110.333 348.674 C 108.720 347.725,107.130 346.824,106.800 346.671 C 106.470 346.519,105.480 345.938,104.600 345.380 C 103.720 344.822,102.685 344.263,102.300 344.136 C 101.915 344.010,101.600 343.748,101.600 343.553 C 101.600 343.359,101.240 343.200,100.800 343.200 C 100.360 343.200,100.000 343.049,100.000 342.864 C 100.000 342.680,99.282 342.185,98.405 341.764 C 97.527 341.344,96.807 340.865,96.805 340.700 C 96.802 340.535,96.440 340.400,96.000 340.400 C 95.560 340.400,95.200 340.220,95.200 340.000 C 95.200 339.780,95.011 339.600,94.781 339.600 C 94.550 339.600,93.377 338.970,92.173 338.200 C 90.969 337.430,89.808 336.800,89.592 336.800 C 89.377 336.800,89.200 336.620,89.200 336.400 C 89.200 336.180,88.933 336.000,88.608 336.000 C 88.282 336.000,87.031 335.370,85.827 334.600 C 84.623 333.830,83.450 333.200,83.219 333.200 C 82.989 333.200,82.800 333.064,82.800 332.898 C 82.800 332.731,82.215 332.343,81.500 332.035 C 80.785 331.727,79.661 331.098,79.002 330.637 C 78.344 330.177,77.084 329.421,76.202 328.957 C 73.480 327.525,70.610 325.860,70.400 325.592 C 70.290 325.451,69.615 325.081,68.900 324.770 C 68.185 324.459,67.600 324.069,67.600 323.902 C 67.600 323.736,67.411 323.600,67.181 323.600 C 66.950 323.600,65.825 323.013,64.681 322.295 C 63.536 321.577,61.565 320.459,60.300 319.811 C 59.035 319.162,58.000 318.523,58.000 318.390 C 58.000 318.258,57.370 317.902,56.600 317.600 C 55.830 317.298,55.200 316.904,55.200 316.725 C 55.200 316.546,54.840 316.400,54.400 316.400 C 53.960 316.400,53.600 316.247,53.600 316.061 C 53.600 315.874,52.880 315.397,52.000 315.000 C 51.120 314.603,50.400 314.170,50.400 314.037 C 50.400 313.904,49.815 313.542,49.100 313.232 C 48.385 312.922,46.900 312.111,45.800 311.430 C 44.700 310.750,43.260 309.926,42.600 309.601 C 41.940 309.276,40.230 308.275,38.800 307.378 C 37.370 306.480,35.615 305.489,34.900 305.175 C 34.185 304.861,33.600 304.469,33.600 304.302 C 33.600 304.136,33.435 304.000,33.233 304.000 C 33.031 304.000,31.518 303.203,29.871 302.229 C 28.223 301.255,26.768 300.565,26.638 300.696 M181.670 308.700 C 190.619 308.760,205.379 308.760,214.470 308.700 C 223.562 308.640,216.240 308.591,198.200 308.591 C 180.160 308.591,172.722 308.640,181.670 308.700 " stroke="none" fill="#44d3fb" fill-rule="evenodd"></path><path id="path4" d="M166.667 226.267 C 166.196 226.737,166.375 231.815,166.880 232.320 C 167.244 232.684,173.781 232.800,193.856 232.800 C 211.813 232.800,220.436 232.934,220.611 233.217 C 220.812 233.543,218.795 236.494,217.614 237.600 C 217.496 237.710,216.680 238.700,215.801 239.800 C 213.528 242.643,213.804 242.300,207.387 250.200 C 199.742 259.610,197.529 262.329,196.800 263.209 C 195.277 265.046,194.839 265.582,192.593 268.352 C 191.277 269.976,189.750 271.881,189.200 272.585 C 188.004 274.117,185.464 277.212,183.789 279.178 C 183.123 279.960,181.869 281.500,181.002 282.600 C 180.136 283.700,179.331 284.690,179.214 284.800 C 179.096 284.910,178.280 285.900,177.401 287.000 C 175.459 289.428,175.400 289.502,172.584 293.000 C 171.344 294.540,170.019 296.167,169.641 296.616 C 165.649 301.343,165.559 301.523,165.684 304.557 L 165.800 307.400 198.100 307.502 L 230.400 307.605 230.400 304.202 L 230.400 300.800 203.200 300.800 C 187.170 300.800,176.000 300.651,176.000 300.437 C 176.000 300.080,178.419 296.872,182.027 292.443 C 184.715 289.145,192.118 279.956,198.337 272.200 C 201.336 268.460,203.892 265.310,204.016 265.200 C 204.141 265.090,205.309 263.650,206.611 262.000 C 207.913 260.350,210.964 256.561,213.390 253.579 C 215.815 250.597,218.340 247.474,219.000 246.638 C 220.225 245.086,224.367 239.924,228.240 235.121 L 230.400 232.443 230.400 229.221 L 230.400 226.000 198.667 226.000 C 181.213 226.000,166.813 226.120,166.667 226.267 " stroke="none" fill="#3d41a6" fill-rule="evenodd"></path><path id="path5" d="M166.085 225.139 C 165.707 225.379,165.600 226.529,165.685 229.433 L 165.800 233.400 192.500 233.503 C 207.185 233.559,219.200 233.739,219.200 233.903 C 219.199 234.285,215.708 238.650,203.800 253.154 C 201.600 255.834,199.350 258.610,198.800 259.323 C 198.250 260.037,195.460 263.474,192.600 266.961 C 189.740 270.449,186.860 273.996,186.200 274.843 C 185.540 275.691,183.563 278.143,181.807 280.292 C 180.051 282.442,175.506 288.009,171.707 292.664 L 164.800 301.128 164.800 304.764 L 164.800 308.400 197.957 308.400 C 227.823 308.400,231.139 308.337,231.357 307.767 C 231.896 306.364,231.615 300.872,230.971 300.229 C 230.413 299.670,227.430 299.600,204.171 299.600 C 186.872 299.600,178.000 299.463,178.000 299.197 C 178.000 298.976,179.845 296.519,182.100 293.738 C 184.355 290.957,187.150 287.493,188.310 286.041 C 189.471 284.588,190.641 283.130,190.911 282.800 C 191.181 282.470,193.576 279.500,196.233 276.200 C 198.890 272.900,202.579 268.336,204.432 266.058 C 206.284 263.780,208.250 261.321,208.800 260.592 C 209.350 259.864,213.400 254.826,217.800 249.397 C 222.200 243.969,226.250 238.939,226.800 238.221 C 227.350 237.503,228.655 235.854,229.700 234.557 L 231.599 232.200 231.600 228.980 C 231.600 227.009,231.414 225.574,231.120 225.280 C 230.557 224.717,166.967 224.580,166.085 225.139 M230.400 229.221 L 230.400 232.443 228.240 235.121 C 224.367 239.924,220.225 245.086,219.000 246.638 C 218.340 247.474,215.815 250.597,213.390 253.579 C 210.964 256.561,207.913 260.350,206.611 262.000 C 205.309 263.650,204.141 265.090,204.016 265.200 C 203.892 265.310,201.336 268.460,198.337 272.200 C 192.118 279.956,184.715 289.145,182.027 292.443 C 178.419 296.872,176.000 300.080,176.000 300.437 C 176.000 300.651,187.170 300.800,203.200 300.800 L 230.400 300.800 230.400 304.202 L 230.400 307.605 198.100 307.502 L 165.800 307.400 165.684 304.557 C 165.559 301.523,165.649 301.343,169.641 296.616 C 170.019 296.167,171.344 294.540,172.584 293.000 C 175.400 289.502,175.459 289.428,177.401 287.000 C 178.280 285.900,179.096 284.910,179.214 284.800 C 179.331 284.690,180.136 283.700,181.002 282.600 C 181.869 281.500,183.123 279.960,183.789 279.178 C 185.464 277.212,188.004 274.117,189.200 272.585 C 189.750 271.881,191.277 269.976,192.593 268.352 C 194.839 265.582,195.277 265.046,196.800 263.209 C 197.529 262.329,199.742 259.610,207.387 250.200 C 213.804 242.300,213.528 242.643,215.801 239.800 C 216.680 238.700,217.496 237.710,217.614 237.600 C 218.795 236.494,220.812 233.543,220.611 233.217 C 220.436 232.934,211.813 232.800,193.856 232.800 C 173.781 232.800,167.244 232.684,166.880 232.320 C 166.375 231.815,166.196 226.737,166.667 226.267 C 166.813 226.120,181.213 226.000,198.667 226.000 L 230.400 226.000 230.400 229.221 " stroke="none" fill="#5698e1" fill-rule="evenodd"></path><path id="path6" d="M165.900 224.676 C 165.285 224.836,165.200 225.413,165.200 229.429 L 165.200 234.000 191.800 234.000 C 206.430 234.000,218.400 234.106,218.400 234.236 C 218.400 234.438,214.065 239.797,201.975 254.541 C 200.559 256.268,198.500 258.815,197.400 260.201 C 194.412 263.965,190.673 268.573,190.421 268.800 C 190.300 268.910,189.480 269.900,188.601 271.000 C 187.721 272.100,186.702 273.360,186.336 273.800 C 185.187 275.181,173.611 289.437,168.700 295.519 L 164.000 301.339 164.000 304.790 C 164.000 306.940,164.181 308.421,164.480 308.720 C 164.989 309.229,230.058 309.460,231.367 308.957 C 232.019 308.707,232.334 301.337,231.757 299.833 C 231.539 299.265,228.842 299.200,205.381 299.200 C 179.104 299.200,178.256 299.153,179.516 297.761 C 179.894 297.342,182.357 294.300,184.989 291.000 C 187.621 287.700,189.871 284.910,189.989 284.800 C 190.282 284.527,207.356 263.296,209.600 260.415 C 211.001 258.615,222.810 243.875,225.313 240.800 C 225.582 240.470,226.521 239.300,227.401 238.201 C 228.280 237.101,229.228 235.960,229.506 235.666 C 231.782 233.259,232.000 232.651,232.000 228.709 C 232.000 225.090,231.954 224.881,231.100 224.652 C 230.067 224.375,166.962 224.398,165.900 224.676 M231.120 225.280 C 231.414 225.574,231.600 227.009,231.600 228.980 L 231.599 232.200 229.700 234.557 C 228.655 235.854,227.350 237.503,226.800 238.221 C 226.250 238.939,222.200 243.969,217.800 249.397 C 213.400 254.826,209.350 259.864,208.800 260.592 C 208.250 261.321,206.284 263.780,204.432 266.058 C 202.579 268.336,198.890 272.900,196.233 276.200 C 193.576 279.500,191.183 282.470,190.915 282.800 C 187.183 287.396,184.677 290.511,183.200 292.391 C 182.210 293.651,180.635 295.625,179.700 296.777 C 178.765 297.929,178.000 299.036,178.000 299.236 C 178.000 299.451,188.712 299.600,204.171 299.600 C 234.475 299.600,231.600 299.133,231.600 304.055 C 231.600 309.391,235.730 308.800,198.419 308.800 C 180.624 308.800,165.781 308.691,165.433 308.557 C 164.921 308.361,164.800 307.629,164.800 304.721 L 164.800 301.128 171.707 292.664 C 175.506 288.009,180.051 282.442,181.807 280.292 C 183.563 278.143,185.540 275.691,186.200 274.843 C 186.860 273.996,189.740 270.449,192.600 266.961 C 195.460 263.474,198.250 260.037,198.800 259.323 C 199.350 258.610,201.600 255.834,203.800 253.154 C 209.159 246.627,215.292 239.095,217.435 236.411 C 218.395 235.207,219.043 234.083,218.874 233.914 C 218.704 233.744,206.694 233.560,192.183 233.503 L 165.800 233.400 165.685 229.433 C 165.600 226.529,165.707 225.379,166.085 225.139 C 166.967 224.580,230.557 224.717,231.120 225.280 M26.400 300.467 C 26.400 300.723,26.507 300.826,26.638 300.696 C 26.768 300.565,28.223 301.255,29.871 302.229 C 31.518 303.203,33.031 304.000,33.233 304.000 C 33.435 304.000,33.600 304.136,33.600 304.302 C 33.600 304.469,34.185 304.861,34.900 305.175 C 35.615 305.489,37.370 306.480,38.800 307.378 C 40.230 308.275,41.940 309.276,42.600 309.601 C 43.260 309.926,44.700 310.750,45.800 311.430 C 46.900 312.111,48.385 312.922,49.100 313.232 C 49.815 313.542,50.400 313.904,50.400 314.037 C 50.400 314.170,51.120 314.603,52.000 315.000 C 52.880 315.397,53.600 315.874,53.600 316.061 C 53.600 316.247,53.960 316.400,54.400 316.400 C 54.840 316.400,55.200 316.546,55.200 316.725 C 55.200 316.904,55.830 317.298,56.600 317.600 C 57.370 317.902,58.000 318.258,58.000 318.390 C 58.000 318.523,59.035 319.162,60.300 319.811 C 61.565 320.459,63.536 321.577,64.681 322.295 C 65.825 323.013,66.950 323.600,67.181 323.600 C 67.411 323.600,67.600 323.736,67.600 323.902 C 67.600 324.069,68.185 324.459,68.900 324.770 C 69.615 325.081,70.290 325.451,70.400 325.592 C 70.610 325.860,73.480 327.525,76.202 328.957 C 77.084 329.421,78.344 330.177,79.002 330.637 C 79.661 331.098,80.785 331.727,81.500 332.035 C 82.215 332.343,82.800 332.731,82.800 332.898 C 82.800 333.064,82.989 333.200,83.219 333.200 C 83.450 333.200,84.623 333.830,85.827 334.600 C 87.031 335.370,88.282 336.000,88.608 336.000 C 88.933 336.000,89.200 336.180,89.200 336.400 C 89.200 336.620,89.377 336.800,89.592 336.800 C 89.808 336.800,90.969 337.430,92.173 338.200 C 93.377 338.970,94.550 339.600,94.781 339.600 C 95.011 339.600,95.200 339.780,95.200 340.000 C 95.200 340.220,95.560 340.400,96.000 340.400 C 96.440 340.400,96.802 340.535,96.805 340.700 C 96.807 340.865,97.527 341.344,98.405 341.764 C 99.282 342.185,100.000 342.680,100.000 342.864 C 100.000 343.049,100.360 343.200,100.800 343.200 C 101.240 343.200,101.600 343.359,101.600 343.553 C 101.600 343.748,101.915 344.010,102.300 344.136 C 102.685 344.263,103.720 344.822,104.600 345.380 C 105.480 345.938,106.470 346.519,106.800 346.671 C 107.130 346.824,108.720 347.725,110.333 348.674 C 111.946 349.623,113.431 350.400,113.633 350.400 C 113.835 350.400,114.000 350.546,114.000 350.725 C 114.000 350.904,114.630 351.298,115.400 351.600 C 116.170 351.902,116.800 352.296,116.800 352.475 C 116.800 352.654,116.989 352.800,117.219 352.800 C 117.450 352.800,118.575 353.387,119.719 354.104 C 120.864 354.821,122.340 355.668,123.000 355.987 C 123.660 356.305,124.470 356.772,124.800 357.023 C 125.130 357.275,126.210 357.913,127.200 358.441 C 128.190 358.968,129.090 359.490,129.200 359.600 C 129.310 359.710,129.760 359.996,130.200 360.236 C 131.182 360.771,134.091 362.399,136.074 363.522 C 136.885 363.981,138.235 364.776,139.074 365.288 C 139.913 365.799,141.140 366.484,141.800 366.808 C 142.460 367.133,143.090 367.489,143.200 367.599 C 143.525 367.926,144.901 368.729,146.400 369.468 C 147.170 369.848,147.890 370.258,148.000 370.380 C 148.110 370.502,148.740 370.871,149.400 371.200 C 150.060 371.529,150.690 371.909,150.800 372.044 C 150.910 372.178,152.260 372.974,153.800 373.812 C 155.340 374.650,157.271 375.755,158.092 376.268 C 158.913 376.780,159.768 377.200,159.992 377.200 C 160.216 377.200,160.400 377.380,160.400 377.600 C 160.400 377.820,160.670 378.000,161.000 378.000 C 161.330 378.000,161.600 378.180,161.600 378.400 C 161.600 378.620,161.960 378.800,162.400 378.800 C 162.840 378.800,163.200 378.980,163.200 379.200 C 163.200 379.420,163.389 379.600,163.619 379.600 C 163.850 379.600,165.023 380.230,166.227 381.000 C 167.431 381.770,168.497 382.400,168.596 382.400 C 168.696 382.400,170.147 383.210,171.822 384.200 C 173.496 385.190,175.031 386.000,175.233 386.000 C 175.435 386.000,175.600 386.180,175.600 386.400 C 175.600 386.620,175.878 386.800,176.217 386.800 C 176.556 386.800,177.051 386.983,177.317 387.206 C 178.522 388.218,180.890 389.600,181.418 389.600 C 181.738 389.600,182.000 389.780,182.000 390.000 C 182.000 390.220,182.197 390.400,182.438 390.400 C 182.679 390.400,183.354 390.734,183.938 391.143 C 184.522 391.551,185.810 392.336,186.800 392.886 C 189.910 394.615,191.499 395.527,193.074 396.488 C 193.913 396.999,195.140 397.684,195.800 398.008 C 196.460 398.333,197.090 398.709,197.200 398.844 C 198.167 400.027,199.919 400.342,201.243 399.570 C 201.989 399.134,202.915 398.672,203.300 398.542 C 203.685 398.413,204.000 398.148,204.000 397.953 C 204.000 397.759,204.360 397.600,204.800 397.600 C 205.240 397.600,205.600 397.420,205.600 397.200 C 205.600 396.980,205.811 396.800,206.069 396.800 C 206.326 396.800,206.821 396.554,207.169 396.254 C 207.516 395.954,209.240 394.940,211.000 394.000 C 212.760 393.060,214.484 392.046,214.831 391.746 C 215.179 391.446,215.674 391.200,215.931 391.200 C 216.189 391.200,216.400 391.020,216.400 390.800 C 216.400 390.580,216.745 390.400,217.167 390.400 C 217.588 390.400,217.993 390.265,218.067 390.100 C 218.235 389.721,220.259 388.486,221.700 387.884 C 222.305 387.631,222.800 387.284,222.800 387.112 C 222.800 386.941,222.975 386.800,223.188 386.800 C 223.402 386.800,224.947 385.990,226.622 385.000 C 228.296 384.010,229.816 383.200,230.000 383.200 C 230.183 383.200,230.393 383.065,230.467 382.900 C 230.540 382.735,231.635 382.067,232.900 381.416 C 234.165 380.764,235.200 380.133,235.200 380.013 C 235.200 379.893,235.785 379.543,236.500 379.235 C 237.215 378.927,238.250 378.368,238.800 377.994 C 239.350 377.620,240.655 376.839,241.700 376.257 C 242.745 375.676,244.455 374.724,245.500 374.143 C 246.545 373.561,247.878 372.751,248.462 372.343 C 249.046 371.934,249.721 371.600,249.962 371.600 C 250.203 371.600,250.400 371.420,250.400 371.200 C 250.400 370.980,250.760 370.800,251.200 370.800 C 251.640 370.800,252.000 370.620,252.000 370.400 C 252.000 370.180,252.197 370.000,252.438 370.000 C 252.679 370.000,253.354 369.664,253.938 369.254 C 254.522 368.843,256.260 367.828,257.800 366.997 C 259.340 366.166,260.884 365.242,261.231 364.943 C 261.579 364.645,262.074 364.400,262.331 364.400 C 262.589 364.400,262.800 364.220,262.800 364.000 C 262.800 363.780,263.160 363.600,263.600 363.600 C 264.040 363.600,264.400 363.462,264.400 363.294 C 264.400 363.126,265.075 362.675,265.900 362.293 C 267.393 361.599,268.819 360.781,269.200 360.399 C 269.310 360.289,269.940 359.931,270.600 359.603 C 271.260 359.276,272.736 358.421,273.881 357.704 C 275.025 356.987,276.135 356.400,276.347 356.400 C 276.560 356.400,276.793 356.265,276.867 356.100 C 276.940 355.935,278.035 355.267,279.300 354.616 C 280.565 353.964,281.600 353.333,281.600 353.213 C 281.600 353.093,282.185 352.741,282.900 352.430 C 283.615 352.119,284.290 351.750,284.400 351.611 C 284.510 351.472,285.230 351.048,286.000 350.668 C 287.499 349.929,288.875 349.126,289.200 348.799 C 289.310 348.689,289.940 348.334,290.600 348.011 C 291.260 347.688,292.748 346.834,293.908 346.112 C 295.067 345.390,296.192 344.800,296.408 344.800 C 296.623 344.800,296.800 344.620,296.800 344.400 C 296.800 344.180,297.160 344.000,297.600 344.000 C 298.040 344.000,298.400 343.820,298.400 343.600 C 298.400 343.380,298.597 343.200,298.838 343.200 C 299.079 343.200,299.754 342.866,300.338 342.457 C 300.922 342.049,302.210 341.259,303.200 340.703 C 304.190 340.147,305.900 339.185,307.000 338.566 C 308.100 337.947,309.060 337.297,309.133 337.120 C 309.207 336.944,309.612 336.800,310.033 336.800 C 310.455 336.800,310.801 336.665,310.803 336.500 C 310.805 336.335,311.210 336.003,311.703 335.763 C 313.136 335.064,315.382 333.818,315.600 333.600 C 315.710 333.490,316.236 333.154,316.768 332.854 C 318.052 332.130,321.197 330.383,322.200 329.836 C 322.640 329.596,323.090 329.310,323.200 329.199 C 323.310 329.089,323.940 328.734,324.600 328.411 C 325.260 328.088,326.748 327.234,327.908 326.512 C 329.067 325.790,330.192 325.200,330.408 325.200 C 330.623 325.200,330.800 325.064,330.800 324.898 C 330.800 324.731,331.381 324.338,332.091 324.024 C 333.356 323.464,335.725 322.010,336.683 321.206 C 336.949 320.983,337.399 320.786,337.683 320.769 C 337.967 320.751,339.010 320.210,340.000 319.566 C 340.990 318.922,342.115 318.285,342.500 318.151 C 342.885 318.016,343.200 317.748,343.200 317.553 C 343.200 317.359,343.560 317.200,344.000 317.200 C 344.440 317.200,344.800 317.020,344.800 316.800 C 344.800 316.580,344.977 316.400,345.192 316.400 C 345.408 316.400,346.569 315.770,347.773 315.000 C 348.977 314.230,350.055 313.600,350.169 313.600 C 350.283 313.600,351.747 312.790,353.422 311.800 C 355.096 310.810,356.631 310.000,356.833 310.000 C 357.035 310.000,357.200 309.820,357.200 309.600 C 357.200 309.380,357.425 309.186,357.700 309.169 C 357.975 309.151,359.010 308.620,360.000 307.989 C 360.990 307.357,362.430 306.526,363.200 306.141 C 363.970 305.756,364.690 305.342,364.800 305.221 C 364.910 305.099,365.360 304.807,365.800 304.571 C 368.078 303.348,369.421 302.579,369.600 302.395 C 369.710 302.282,370.687 301.742,371.772 301.195 C 372.891 300.630,373.474 300.148,373.120 300.080 C 372.777 300.014,371.889 300.307,371.148 300.731 C 370.407 301.155,368.630 302.176,367.200 303.000 C 365.770 303.824,363.829 304.936,362.887 305.470 C 361.944 306.004,359.154 307.623,356.687 309.069 C 354.219 310.514,351.210 312.241,350.000 312.906 C 348.790 313.571,347.620 314.245,347.400 314.404 C 347.180 314.563,346.190 315.145,345.200 315.697 C 343.003 316.923,340.776 318.204,329.400 324.788 C 325.880 326.825,322.190 328.947,321.200 329.503 C 320.210 330.059,318.922 330.849,318.338 331.257 C 317.754 331.666,317.176 332.000,317.054 332.000 C 316.931 332.000,315.181 332.990,313.164 334.200 C 311.148 335.410,309.454 336.400,309.400 336.400 C 309.346 336.400,306.264 338.165,302.551 340.321 C 298.838 342.478,295.530 344.369,295.200 344.525 C 294.870 344.680,294.060 345.140,293.400 345.547 C 292.740 345.954,291.570 346.649,290.800 347.092 C 290.030 347.535,288.000 348.730,286.288 349.749 C 284.577 350.767,283.113 351.600,283.036 351.600 C 282.958 351.600,280.399 353.061,277.347 354.847 C 274.296 356.633,270.990 358.547,270.000 359.101 C 269.010 359.654,268.020 360.237,267.800 360.396 C 267.580 360.555,266.410 361.227,265.200 361.891 C 263.990 362.554,261.830 363.772,260.400 364.597 C 258.970 365.423,257.170 366.455,256.400 366.892 C 255.630 367.328,254.820 367.822,254.600 367.989 C 254.380 368.156,253.390 368.745,252.400 369.297 C 250.635 370.282,246.575 372.610,244.200 374.000 C 240.101 376.399,230.761 381.777,228.400 383.099 C 227.410 383.654,226.420 384.244,226.200 384.411 C 225.980 384.578,225.080 385.113,224.200 385.599 C 223.320 386.086,220.393 387.770,217.696 389.342 C 214.999 390.914,212.118 392.560,211.294 393.000 C 210.470 393.440,209.167 394.187,208.398 394.660 C 207.629 395.134,206.280 395.924,205.400 396.417 C 204.520 396.910,203.045 397.738,202.123 398.257 C 200.200 399.338,199.304 399.428,198.189 398.648 C 197.755 398.345,196.770 397.737,196.000 397.297 C 195.230 396.858,193.430 395.824,192.000 395.000 C 190.570 394.176,188.770 393.143,188.000 392.705 C 187.230 392.266,183.270 389.976,179.200 387.615 C 175.130 385.254,170.990 382.868,170.000 382.313 C 169.010 381.758,166.800 380.470,165.088 379.452 C 163.377 378.433,161.875 377.600,161.750 377.600 C 161.626 377.600,161.046 377.266,160.462 376.857 C 159.472 376.165,158.727 375.734,153.700 372.946 C 152.655 372.367,151.620 371.756,151.400 371.589 C 151.180 371.422,150.280 370.885,149.400 370.396 C 148.520 369.907,142.580 366.489,136.200 362.800 C 129.820 359.111,123.970 355.737,123.200 355.302 C 122.430 354.866,119.305 353.046,116.256 351.255 C 113.207 349.465,110.638 348.000,110.547 348.000 C 110.457 348.000,109.712 347.576,108.891 347.057 C 108.071 346.538,105.690 345.117,103.600 343.897 C 99.999 341.797,99.100 341.284,94.800 338.881 C 93.810 338.327,91.857 337.183,90.459 336.337 C 89.062 335.492,87.870 334.800,87.811 334.800 C 87.752 334.800,85.706 333.639,83.265 332.220 C 80.824 330.801,78.056 329.206,77.113 328.675 C 76.171 328.144,73.364 326.514,70.876 325.054 C 66.414 322.435,64.634 321.417,60.900 319.346 C 59.855 318.767,58.820 318.156,58.600 317.989 C 58.380 317.822,57.570 317.332,56.800 316.901 C 56.030 316.469,52.520 314.449,49.000 312.412 C 45.480 310.375,41.829 308.270,40.887 307.734 C 39.944 307.198,37.176 305.599,34.735 304.180 C 32.294 302.761,30.185 301.596,30.048 301.591 C 29.912 301.586,29.350 301.230,28.800 300.800 C 27.686 299.929,26.400 299.750,26.400 300.467 " stroke="none" fill="#37d4f1" fill-rule="evenodd"></path></g></svg>